<?xml version="1.0" encoding="utf-8"?>
<!-- Generator: Adobe Illustrator 21.1.0, SVG Export Plug-In . SVG Version: 6.00 Build 0)  -->
<svg version="1.1"
	 id="svg4757" inkscape:export-filename="/Users/noamross/Dropbox (EHA)/projects/ehastyle/inst/sidebar.png" inkscape:export-xdpi="600" inkscape:export-ydpi="600" inkscape:version="0.91 r13725" sodipodi:docname="sidebar.svg" xmlns:cc="http://creativecommons.org/ns#" xmlns:dc="http://purl.org/dc/elements/1.1/" xmlns:inkscape="http://www.inkscape.org/namespaces/inkscape" xmlns:rdf="http://www.w3.org/1999/02/22-rdf-syntax-ns#" xmlns:sodipodi="http://sodipodi.sourceforge.net/DTD/sodipodi-0.dtd" xmlns:svg="http://www.w3.org/2000/svg"
	 xmlns="http://www.w3.org/2000/svg" xmlns:xlink="http://www.w3.org/1999/xlink" x="0px" y="0px" viewBox="0 0 127.6 434.7"
	 style="enable-background:new 0 0 127.6 434.7;" xml:space="preserve">
<style type="text/css">
	.st0{fill:#002A6C;}
	.st1{clip-path:url(#SVGID_2_);}
	.st2{fill:#FFFFFF;fill-opacity:0.1765;}
	.st3{fill:#FFFFFF;}
	.st4{font-family:'Arial-BoldMT';}
	.st5{font-size:35px;}
	.st6{font-family:'ArialMT';}
	.st7{font-size:12px;}
	.st8{fill:#666666;stroke:#FFFFFF;stroke-width:0.7087;stroke-miterlimit:10;}
	.st9{fill:#CC0033;stroke:#FFFFFF;stroke-miterlimit:10;}
	.st10{fill:#666666;stroke:#FFFFFF;stroke-miterlimit:10;}
	.st11{fill:#666666;stroke:#FFFFFF;stroke-width:1.1339;stroke-miterlimit:10;}
	.st12{fill:#666666;stroke:#FFFFFF;stroke-width:0.5;stroke-miterlimit:10;}
</style>
<rect x="0" y="0" class="st0" width="127.6" height="434.7"/>
<g>
	<g>
		<defs>
			<rect id="SVGID_1_" x="-3717.5" y="3614.3" width="590.6" height="2012.2"/>
		</defs>
		<use xlink:href="#SVGID_1_"  style="overflow:visible;fill:#FFFFFF;"/>
		<clipPath id="SVGID_2_">
			<use xlink:href="#SVGID_1_"  style="overflow:visible;"/>
		</clipPath>
		<g id="g4609" transform="matrix(4.6289089,0,0,4.6289089,-3746.559,2126.8339)" class="st1">
			<path id="path4611" inkscape:connector-curvature="0" class="st2" d="M778.3-420.3c0-30.3,24.5-54.8,54.8-54.8
				c0.5,0,0.8,0.4,0.8,0.8c0,0.5-0.4,0.8-0.8,0.8c-14.7,0-28,5.9-37.6,15.6c-9.6,9.6-15.6,22.9-15.6,37.6s6,28,15.6,37.6
				s22.9,15.6,37.6,15.6c0.5,0,0.8,0.4,0.8,0.8c0,0.5-0.4,0.8-0.8,0.8C802.9-365.5,778.3-390,778.3-420.3"/>
			<path id="path4613" inkscape:connector-curvature="0" class="st2" d="M782.5-420.3c0-28,22.7-50.7,50.7-50.7s50.7,22.7,50.7,50.7
				s-22.7,50.7-50.7,50.7v-1.7c13.6,0,25.8-5.5,34.7-14.3c8.9-8.9,14.3-21.1,14.3-34.7c0-13.5-5.5-25.8-14.3-34.7
				c-8.9-8.9-21.1-14.3-34.7-14.3s-25.8,5.5-34.7,14.3c-8.9,8.9-14.3,21.1-14.3,34.7c0,13.5,5.5,25.8,14.3,34.7
				c8.9,8.9,21.1,14.3,34.7,14.3v1.7C805.2-369.7,782.5-392.4,782.5-420.3"/>
			<path id="path4615" inkscape:connector-curvature="0" class="st2" d="M788.3-420.3c0,24.8,20.1,44.8,44.9,44.8
				c24.8,0,44.9-20,44.9-44.8s-20.1-44.8-44.9-44.8C808.4-465.2,788.3-445.2,788.3-420.3z M800.3-387.5c-8.4-8.4-13.6-20-13.6-32.9
				s5.2-24.5,13.6-32.9c8.4-8.4,20.1-13.6,32.9-13.6c12.9,0,24.5,5.2,32.9,13.6s13.6,20,13.6,32.9s-5.2,24.5-13.6,32.9
				c-8.4,8.4-20.1,13.6-32.9,13.6C820.3-373.8,808.7-379,800.3-387.5"/>
			<path id="path4617" inkscape:connector-curvature="0" class="st2" d="M833.2-378v-1.7c11.3,0,21.4-4.6,28.8-11.9
				c7.4-7.4,11.9-17.6,11.9-28.8c0-11.2-4.5-21.4-11.9-28.8s-17.5-11.9-28.8-11.9s-21.4,4.6-28.8,11.9c-7.4,7.4-11.9,17.5-11.9,28.8
				c0,11.2,4.6,21.4,11.9,28.8c7.4,7.4,17.5,11.9,28.8,11.9V-378c-23.4,0-42.4-19-42.4-42.4s18.9-42.4,42.4-42.4
				c23.4,0,42.4,19,42.4,42.4C875.5-397,856.6-378,833.2-378L833.2-378"/>
			<path id="path4619" inkscape:connector-curvature="0" class="st2" d="M806.1-393.3c-6.9-6.9-11.2-16.5-11.2-27
				c0-10.6,4.3-20.1,11.2-27s16.5-11.2,27-11.2c0.5,0,0.8,0.4,0.8,0.8c0,0.5-0.4,0.8-0.8,0.8c-20.2,0-36.6,16.3-36.6,36.6
				c0,20.2,16.3,36.6,36.6,36.6c20.2,0,36.6-16.4,36.6-36.6c0-0.5,0.4-0.8,0.8-0.8c0.5,0,0.8,0.4,0.8,0.8c0,10.6-4.3,20.1-11.2,27
				s-16.5,11.2-27,11.2C822.6-382.1,813.1-386.4,806.1-393.3"/>
			<path id="path4621" inkscape:connector-curvature="0" class="st2" d="M809.1-396.3c-6.2-6.2-10-14.7-10-24.1s3.8-17.9,10-24.1
				s14.7-10,24.1-10c9.4,0,17.9,3.8,24.1,10c6.2,6.2,10,14.7,10,24.1c0,0.4-0.4,0.8-0.8,0.8c-0.5,0-0.8-0.4-0.8-0.8
				c0-9-3.6-17-9.5-22.9s-14-9.5-22.9-9.5c-9,0-17.1,3.6-22.9,9.5c-5.9,5.9-9.5,14-9.5,22.9s3.6,17,9.5,22.9s14,9.5,22.9,9.5
				c0.5,0,0.8,0.4,0.8,0.8c0,0.5-0.4,0.8-0.8,0.8C823.8-386.3,815.2-390.1,809.1-396.3"/>
			<path id="path4623" inkscape:connector-curvature="0" class="st2" d="M804.6-420.3c0,15.8,12.7,28.5,28.5,28.5
				s28.5-12.7,28.5-28.5s-12.8-28.5-28.5-28.5C817.4-448.9,804.6-436.1,804.6-420.3z M812.2-399.4c-5.4-5.4-8.7-12.8-8.7-21
				s3.3-15.6,8.7-21s12.8-8.7,21-8.7s15.6,3.3,21,8.7c5.4,5.4,8.7,12.8,8.7,21s-3.3,15.6-8.7,21s-12.8,8.7-21,8.7
				C825-390.7,817.6-394,812.2-399.4"/>
			<path id="path4625" inkscape:connector-curvature="0" class="st2" d="M807.4-420.3c0-14.2,11.5-25.8,25.7-25.8
				c0.5,0,0.8,0.4,0.8,0.8c0,0.5-0.4,0.8-0.8,0.8c-6.7,0-12.7,2.7-17,7.1c-4.4,4.4-7.1,10.4-7.1,17c0,6.7,2.7,12.7,7.1,17
				c4.4,4.4,10.4,7.1,17,7.1c6.7,0,12.7-2.7,17-7.1c4.4-4.4,7.1-10.4,7.1-17c0-0.5,0.4-0.8,0.8-0.8c0.5,0,0.8,0.4,0.8,0.8
				c0,14.2-11.5,25.8-25.8,25.8C819-394.6,807.4-406.1,807.4-420.3"/>
			<path id="path4627" inkscape:connector-curvature="0" class="st2" d="M831.5-399.6c0-0.9,0.7-1.7,1.7-1.7
				c10.6,0,19.1-8.5,19.1-19.1s-8.6-19.1-19.1-19.1c-10.6,0-19.1,8.5-19.1,19.1c0,0.9-0.7,1.7-1.7,1.7c-0.9,0-1.7-0.7-1.7-1.7
				c0-12.4,10-22.4,22.4-22.4s22.4,10,22.4,22.4s-10,22.4-22.4,22.4C832.3-397.9,831.5-398.7,831.5-399.6"/>
			<path id="path4629" inkscape:connector-curvature="0" class="st2" d="M815.7-420.3c0-0.5,0.4-0.8,0.8-0.8c0.5,0,0.8,0.4,0.8,0.8
				c0,8.7,7.1,15.8,15.8,15.8s15.8-7.1,15.8-15.8c0-0.5,0.4-0.8,0.8-0.8c0.5,0,0.8,0.4,0.8,0.8c0,9.6-7.8,17.4-17.4,17.4
				C823.5-402.9,815.7-410.7,815.7-420.3"/>
			<path id="path4631" inkscape:connector-curvature="0" class="st2" d="M822.1-420.3c0,6.1,5,11.1,11.1,11.1s11.1-4.9,11.1-11.1
				c0-6.1-5-11.1-11.1-11.1S822.1-426.5,822.1-420.3z M819.3-420.3c0-7.7,6.2-13.8,13.9-13.8c7.6,0,13.8,6.2,13.9,13.8
				c0,7.7-6.2,13.8-13.9,13.8S819.3-412.7,819.3-420.3"/>
			<path id="path4633" inkscape:connector-curvature="0" class="st2" d="M831.5-412c0-0.9,0.7-1.7,1.7-1.7c3.7,0,6.6-3,6.7-6.7
				c0-3.7-3-6.7-6.7-6.7s-6.6,3-6.6,6.7c0,0.9-0.7,1.7-1.7,1.7c-0.9,0-1.7-0.7-1.7-1.7c0-5.5,4.5-10,10-10s10,4.5,10,10
				s-4.5,10-10,10C832.3-410.4,831.5-411.1,831.5-412"/>
		</g>
	</g>
</g>
<text transform="matrix(0 -1 1 0 86.9287 209.6436)" class="st3 st4 st5">INSIGHTS</text>
<text transform="matrix(0 -1 1 0 48.2471 395.4727)" class="st3 st6 st5">EMERGING DISEASE</text>
<text transform="matrix(0 -1 1 0 111.3428 384.3047)" class="st3 st4 st7">Research from the PREDICT Modeling &amp; Analytics team</text>
<line class="st8" x1="86" y1="376.7" x2="81.2" y2="389.2"/>
<line class="st8" x1="58.7" y1="395.2" x2="79.2" y2="390"/>
<line class="st8" x1="68.2" y1="384.9" x2="84.9" y2="376.6"/>
<line class="st8" x1="73.7" y1="405.1" x2="80.9" y2="391.5"/>
<line class="st8" x1="80.3" y1="390.5" x2="91.8" y2="397.2"/>
<path class="st9" d="M78.7,386.7c1.8-0.8,4-0.1,4.8,1.8c0.8,1.8,0.1,4-1.8,4.8c-1.8,0.8-4,0.1-4.8-1.8
	C76.1,389.7,76.9,387.6,78.7,386.7"/>
<path class="st10" d="M56.4,390.8c2.2-1,4.8-0.1,5.8,2.1c1,2.2,0.1,4.8-2.1,5.8c-2.2,1-4.8,0.1-5.8-2.1
	C53.2,394.4,54.2,391.8,56.4,390.8"/>
<path class="st10" d="M89.6,394.1c2.8-1.3,6.2-0.1,7.5,2.7c1.3,2.8,0.1,6.2-2.7,7.5c-2.8,1.3-6.2,0.1-7.5-2.7
	C85.6,398.7,86.8,395.4,89.6,394.1"/>
<path class="st10" d="M66.6,378.9c2.6-1.2,5.8-0.1,7,2.6c1.2,2.7,0.1,5.8-2.6,7c-2.6,1.2-5.8,0.1-7-2.6
	C62.8,383.3,63.9,380.2,66.6,378.9"/>
<path class="st10" d="M72.6,402.2c2-1,4.5-0.1,5.4,2c1,2,0.1,4.5-2,5.4c-2,1-4.5,0.1-5.4-2C69.7,405.6,70.6,403.1,72.6,402.2"/>
<path class="st10" d="M84.6,373.8c1.6-0.7,3.4,0,4.2,1.5c0.7,1.6,0,3.4-1.5,4.2c-1.6,0.7-3.4,0.1-4.2-1.5
	C82.3,376.5,83,374.6,84.6,373.8"/>
<path class="st10" d="M64.4,318.7c2.2-1,4.8-0.1,5.9,2.1c1,2.2,0.1,4.8-2.1,5.9c-2.2,1-4.8,0.1-5.9-2.1
	C61.2,322.3,62.2,319.7,64.4,318.7"/>
<path class="st10" d="M76.7,415.3c2.6-1.2,5.8-0.1,7,2.6c1.2,2.7,0.1,5.8-2.6,7c-2.6,1.2-5.8,0.1-7-2.6
	C72.9,419.7,74.1,416.6,76.7,415.3"/>
<path class="st9" d="M73.3,330.6c5.1-2.4,11.1-0.2,13.4,4.9c2.4,5.1,0.2,11.1-4.9,13.4c-5.1,2.4-11.1,0.2-13.4-4.9
	C66,338.9,68.2,332.9,73.3,330.6"/>
<path class="st10" d="M57.9,331.3c2.2-1,4.8-0.1,5.9,2.1c1,2.2,0.1,4.8-2.1,5.9c-2.2,1-4.8,0.1-5.9-2.1
	C54.8,335,55.7,332.3,57.9,331.3"/>
<path class="st10" d="M93.4,269.6c1.3-0.6,2.8,0,3.4,1.2c0.6,1.3,0,2.8-1.2,3.4c-1.3,0.6-2.8,0-3.4-1.2
	C91.6,271.7,92.1,270.2,93.4,269.6"/>
<path class="st10" d="M70.3,277.7c-1.8-3.6-0.3-7.9,3.3-9.7c3.6-1.8,7.9-0.3,9.7,3.3c1.8,3.6,0.3,7.9-3.3,9.7
	C76.4,282.8,72,281.3,70.3,277.7"/>
<path class="st10" d="M64.8,248.4c-1.4-1.9-1-4.6,0.9-6c1.9-1.4,4.6-1,6,0.9c1.4,1.9,1,4.6-0.9,6C68.9,250.7,66.2,250.3,64.8,248.4"
	/>
<path class="st9" d="M55.5,265.8c-1.8-3.6-0.3-7.9,3.3-9.7c3.6-1.8,7.9-0.3,9.7,3.3c1.8,3.6,0.3,7.9-3.3,9.7
	C61.6,270.8,57.3,269.3,55.5,265.8"/>
<path class="st9" d="M79.7,258.2c-1.8-3.6-0.3-7.9,3.3-9.7c3.6-1.8,7.9-0.3,9.7,3.3c1.8,3.6,0.3,7.9-3.3,9.7
	C85.9,263.3,81.5,261.8,79.7,258.2"/>
<path class="st10" d="M80.4,227c-1.8-3.6-0.3-7.9,3.3-9.7c3.6-1.8,7.9-0.3,9.7,3.3c1.8,3.6,0.3,7.9-3.3,9.7
	C86.6,232,82.2,230.5,80.4,227"/>
<line class="st11" x1="85.1" y1="373.6" x2="81.8" y2="348.9"/>
<line class="st11" x1="79.2" y1="329.8" x2="77.5" y2="281.4"/>
<line class="st8" x1="79.8" y1="414.9" x2="81.2" y2="393.7"/>
<line class="st8" x1="90.4" y1="261" x2="93.5" y2="269.8"/>
<line class="st8" x1="79.7" y1="258.2" x2="68.5" y2="259.3"/>
<line class="st8" x1="79.6" y1="252" x2="70.8" y2="249.3"/>
<line class="st8" x1="79.9" y1="268" x2="83.7" y2="262.4"/>
<path class="st12" d="M73.9,283.8"/>
<line class="st8" x1="86.9" y1="247.8" x2="86.2" y2="231"/>
<line class="st8" x1="67.4" y1="337.9" x2="63.8" y2="336.6"/>
<line class="st8" x1="72.5" y1="330.9" x2="69.8" y2="326.4"/>
<line class="st8" x1="61.7" y1="331.5" x2="63.8" y2="326.4"/>
</svg>
