<?xml version="1.0" encoding="utf-8"?>
<!-- Generator: Adobe Illustrator 21.1.0, SVG Export Plug-In . SVG Version: 6.00 Build 0)  -->
<svg version="1.1"
	 id="svg4757" inkscape:export-filename="/Users/noamross/Dropbox (EHA)/projects/ehastyle/inst/sidebar.png" inkscape:export-xdpi="600" inkscape:export-ydpi="600" inkscape:version="0.91 r13725" sodipodi:docname="sidebar.svg" xmlns:cc="http://creativecommons.org/ns#" xmlns:dc="http://purl.org/dc/elements/1.1/" xmlns:inkscape="http://www.inkscape.org/namespaces/inkscape" xmlns:rdf="http://www.w3.org/1999/02/22-rdf-syntax-ns#" xmlns:sodipodi="http://sodipodi.sourceforge.net/DTD/sodipodi-0.dtd" xmlns:svg="http://www.w3.org/2000/svg"
	 xmlns="http://www.w3.org/2000/svg" xmlns:xlink="http://www.w3.org/1999/xlink" x="0px" y="0px" viewBox="0 0 127.6 434.7"
	 style="enable-background:new 0 0 127.6 434.7;" xml:space="preserve">
<style type="text/css">
	.st0{clip-path:url(#SVGID_2_);}
	.st1{fill:#57992B;fill-opacity:0.1765;}
	.st2{fill:#002A6C;}
	.st3{font-family:'Arial-BoldMT';}
	.st4{font-size:35px;}
	.st5{fill:none;stroke:#002A6C;stroke-width:2.551;stroke-miterlimit:15.2;}
	.st6{font-family:'ArialMT';}
	.st7{font-size:12px;}
</style>
<image style="overflow:visible;" width="529" height="1815" xlink:href="84CF1D68496D4981.jpg"  transform="matrix(0.24 0 0 0.24 1.44 -0.9)">
</image>
<image style="overflow:visible;enable-background:new    ;" width="533" height="1817" xlink:href="84CF1D68496D4981.jpg"  transform="matrix(0.2394 0 0 0.2394 0.2725 -0.2601)">
</image>
<g id="layer1" transform="translate(-8.0000106,-409.87754)" inkscape:groupmode="layer" inkscape:label="Layer 1">
	<g>
		<g>
			<g>
				<defs>
					<rect id="SVGID_1_" x="-20917.5" y="20754.5" width="2733.8" height="9314.3"/>
				</defs>
				<clipPath id="SVGID_2_">
					<use xlink:href="#SVGID_1_"  style="overflow:visible;"/>
				</clipPath>
				<g id="g4609" transform="matrix(4.6289089,0,0,4.6289089,-3746.559,2126.8339)" class="st0">
					<path id="path4611" inkscape:connector-curvature="0" class="st1" d="M780-331.8c0-30.3,24.5-54.8,54.8-54.8
						c0.5,0,0.8,0.4,0.8,0.8c0,0.5-0.4,0.8-0.8,0.8c-14.7,0-28,5.9-37.6,15.6c-9.6,9.6-15.6,22.9-15.6,37.6s6,28,15.6,37.6
						s22.9,15.6,37.6,15.6c0.5,0,0.8,0.4,0.8,0.8c0,0.5-0.4,0.8-0.8,0.8C804.6-277,780-301.5,780-331.8"/>
					<path id="path4613" inkscape:connector-curvature="0" class="st1" d="M784.2-331.8c0-28,22.7-50.7,50.7-50.7
						s50.7,22.7,50.7,50.7s-22.7,50.7-50.7,50.7v-1.7c13.6,0,25.8-5.5,34.7-14.3c8.9-8.9,14.3-21.1,14.3-34.7
						c0-13.5-5.5-25.8-14.3-34.7c-8.9-8.9-21.1-14.3-34.7-14.3s-25.8,5.5-34.7,14.3c-8.9,8.9-14.3,21.1-14.3,34.7
						c0,13.5,5.5,25.8,14.3,34.7c8.9,8.9,21.1,14.3,34.7,14.3v1.7C806.9-281.2,784.2-303.9,784.2-331.8"/>
					<path id="path4615" inkscape:connector-curvature="0" class="st1" d="M790-331.8c0,24.8,20.1,44.8,44.9,44.8
						c24.8,0,44.9-20,44.9-44.8s-20.1-44.8-44.9-44.8C810.1-376.7,790-356.7,790-331.8z M802-299c-8.4-8.4-13.6-20-13.6-32.9
						s5.2-24.5,13.6-32.9c8.4-8.4,20.1-13.6,32.9-13.6c12.9,0,24.5,5.2,32.9,13.6s13.6,20,13.6,32.9s-5.2,24.5-13.6,32.9
						c-8.4,8.4-20.1,13.6-32.9,13.6C822-285.3,810.4-290.5,802-299"/>
					<path id="path4617" inkscape:connector-curvature="0" class="st1" d="M834.9-289.5v-1.7c11.3,0,21.4-4.6,28.8-11.9
						c7.4-7.4,11.9-17.6,11.9-28.8c0-11.2-4.5-21.4-11.9-28.8s-17.5-11.9-28.8-11.9s-21.4,4.6-28.8,11.9
						c-7.4,7.4-11.9,17.5-11.9,28.8c0,11.2,4.6,21.4,11.9,28.8c7.4,7.4,17.5,11.9,28.8,11.9V-289.5c-23.4,0-42.4-19-42.4-42.4
						s18.9-42.4,42.4-42.4c23.4,0,42.4,19,42.4,42.4C877.2-308.5,858.3-289.5,834.9-289.5L834.9-289.5"/>
					<path id="path4619" inkscape:connector-curvature="0" class="st1" d="M807.8-304.8c-6.9-6.9-11.2-16.5-11.2-27
						c0-10.6,4.3-20.1,11.2-27s16.5-11.2,27-11.2c0.5,0,0.8,0.4,0.8,0.8c0,0.5-0.4,0.8-0.8,0.8c-20.2,0-36.6,16.3-36.6,36.6
						c0,20.2,16.3,36.6,36.6,36.6c20.2,0,36.6-16.4,36.6-36.6c0-0.5,0.4-0.8,0.8-0.8c0.5,0,0.8,0.4,0.8,0.8c0,10.6-4.3,20.1-11.2,27
						s-16.5,11.2-27,11.2C824.3-293.6,814.8-297.9,807.8-304.8"/>
					<path id="path4621" inkscape:connector-curvature="0" class="st1" d="M810.8-307.8c-6.2-6.2-10-14.7-10-24.1s3.8-17.9,10-24.1
						s14.7-10,24.1-10c9.4,0,17.9,3.8,24.1,10c6.2,6.2,10,14.7,10,24.1c0,0.4-0.4,0.8-0.8,0.8c-0.5,0-0.8-0.4-0.8-0.8
						c0-9-3.6-17-9.5-22.9s-14-9.5-22.9-9.5c-9,0-17.1,3.6-22.9,9.5c-5.9,5.9-9.5,14-9.5,22.9s3.6,17,9.5,22.9s14,9.5,22.9,9.5
						c0.5,0,0.8,0.4,0.8,0.8c0,0.5-0.4,0.8-0.8,0.8C825.5-297.8,816.9-301.6,810.8-307.8"/>
					<path id="path4623" inkscape:connector-curvature="0" class="st1" d="M806.3-331.8c0,15.8,12.7,28.5,28.5,28.5
						s28.5-12.7,28.5-28.5s-12.8-28.5-28.5-28.5C819.1-360.4,806.3-347.6,806.3-331.8z M813.9-310.9c-5.4-5.4-8.7-12.8-8.7-21
						s3.3-15.6,8.7-21s12.8-8.7,21-8.7s15.6,3.3,21,8.7c5.4,5.4,8.7,12.8,8.7,21s-3.3,15.6-8.7,21s-12.8,8.7-21,8.7
						C826.7-302.2,819.3-305.5,813.9-310.9"/>
					<path id="path4625" inkscape:connector-curvature="0" class="st1" d="M809.1-331.8c0-14.2,11.5-25.8,25.7-25.8
						c0.5,0,0.8,0.4,0.8,0.8c0,0.5-0.4,0.8-0.8,0.8c-6.7,0-12.7,2.7-17,7.1c-4.4,4.4-7.1,10.4-7.1,17c0,6.7,2.7,12.7,7.1,17
						c4.4,4.4,10.4,7.1,17,7.1c6.7,0,12.7-2.7,17-7.1c4.4-4.4,7.1-10.4,7.1-17c0-0.5,0.4-0.8,0.8-0.8c0.5,0,0.8,0.4,0.8,0.8
						c0,14.2-11.5,25.8-25.8,25.8C820.7-306.1,809.1-317.6,809.1-331.8"/>
					<path id="path4627" inkscape:connector-curvature="0" class="st1" d="M833.2-311.1c0-0.9,0.7-1.7,1.7-1.7
						c10.6,0,19.1-8.5,19.1-19.1s-8.6-19.1-19.1-19.1c-10.6,0-19.1,8.5-19.1,19.1c0,0.9-0.7,1.7-1.7,1.7c-0.9,0-1.7-0.7-1.7-1.7
						c0-12.4,10-22.4,22.4-22.4s22.4,10,22.4,22.4s-10,22.4-22.4,22.4C834-309.4,833.2-310.2,833.2-311.1"/>
					<path id="path4629" inkscape:connector-curvature="0" class="st1" d="M817.4-331.8c0-0.5,0.4-0.8,0.8-0.8
						c0.5,0,0.8,0.4,0.8,0.8c0,8.7,7.1,15.8,15.8,15.8s15.8-7.1,15.8-15.8c0-0.5,0.4-0.8,0.8-0.8c0.5,0,0.8,0.4,0.8,0.8
						c0,9.6-7.8,17.4-17.4,17.4C825.2-314.4,817.4-322.2,817.4-331.8"/>
					<path id="path4631" inkscape:connector-curvature="0" class="st1" d="M823.8-331.8c0,6.1,5,11.1,11.1,11.1s11.1-4.9,11.1-11.1
						c0-6.1-5-11.1-11.1-11.1S823.8-338,823.8-331.8z M821-331.8c0-7.7,6.2-13.8,13.9-13.8c7.6,0,13.8,6.2,13.9,13.8
						c0,7.7-6.2,13.8-13.9,13.8S821-324.2,821-331.8"/>
					<path id="path4633" inkscape:connector-curvature="0" class="st1" d="M833.2-323.5c0-0.9,0.7-1.7,1.7-1.7c3.7,0,6.6-3,6.7-6.7
						c0-3.7-3-6.7-6.7-6.7s-6.6,3-6.6,6.7c0,0.9-0.7,1.7-1.7,1.7c-0.9,0-1.7-0.7-1.7-1.7c0-5.5,4.5-10,10-10s10,4.5,10,10
						s-4.5,10-10,10C834-321.9,833.2-322.6,833.2-323.5"/>
				</g>
			</g>
		</g>
	</g>
	<text transform="matrix(0 -1 1 0 94.9287 665.1881)" class="st2 st3 st4">INSIGHTS</text>
	<text transform="matrix(0 -1 1 0 94.9287 665.1881)" class="st5 st3 st4">INSIGHTS</text>
	<text transform="matrix(0 -1 1 0 56.2471 805.3502)" class="st2 st6 st4">EMERGING DISEASE</text>
	<text transform="matrix(0 -1 1 0 119.3428 794.1823)" class="st2 st3 st7">Research from the PREDICT Modeling &amp; Analytics team</text>
</g>
</svg>
