<?xml version="1.0" encoding="utf-8"?>
<!-- Generator: Adobe Illustrator 21.1.0, SVG Export Plug-In . SVG Version: 6.00 Build 0)  -->
<svg version="1.1"
	 id="svg4757" inkscape:export-filename="/Users/noamross/Dropbox (EHA)/projects/ehastyle/inst/sidebar.png" inkscape:export-xdpi="600" inkscape:export-ydpi="600" inkscape:version="0.91 r13725" sodipodi:docname="sidebar.svg" xmlns:cc="http://creativecommons.org/ns#" xmlns:dc="http://purl.org/dc/elements/1.1/" xmlns:inkscape="http://www.inkscape.org/namespaces/inkscape" xmlns:rdf="http://www.w3.org/1999/02/22-rdf-syntax-ns#" xmlns:sodipodi="http://sodipodi.sourceforge.net/DTD/sodipodi-0.dtd" xmlns:svg="http://www.w3.org/2000/svg"
	 xmlns="http://www.w3.org/2000/svg" xmlns:xlink="http://www.w3.org/1999/xlink" x="0px" y="0px" viewBox="0 0 127.6 434.7"
	 style="enable-background:new 0 0 127.6 434.7;" xml:space="preserve">
<style type="text/css">
	.st0{fill:#002A6C;}
	.st1{clip-path:url(#SVGID_2_);}
	.st2{fill:#FFFFFF;fill-opacity:0.1765;}
	.st3{fill:#FFFFFF;}
	.st4{font-family:'Arial-BoldMT';}
	.st5{font-size:35px;}
	.st6{font-family:'ArialMT';}
	.st7{font-size:12px;}
	.st8{fill:#C2113A;}
</style>
<rect x="0" y="0" class="st0" width="127.6" height="434.7"/>
<g>
	<g>
		<defs>
			<rect id="SVGID_1_" x="-3717.5" y="3614.3" width="590.6" height="2012.2"/>
		</defs>
		<use xlink:href="#SVGID_1_"  style="overflow:visible;fill:#FFFFFF;"/>
		<clipPath id="SVGID_2_">
			<use xlink:href="#SVGID_1_"  style="overflow:visible;"/>
		</clipPath>
		<g id="g4609" transform="matrix(4.6289089,0,0,4.6289089,-3746.559,2126.8339)" class="st1">
			<path id="path4611" inkscape:connector-curvature="0" class="st2" d="M778.3-420.3c0-30.3,24.5-54.8,54.8-54.8
				c0.5,0,0.8,0.4,0.8,0.8c0,0.5-0.4,0.8-0.8,0.8c-14.7,0-28,5.9-37.6,15.6c-9.6,9.6-15.6,22.9-15.6,37.6s6,28,15.6,37.6
				s22.9,15.6,37.6,15.6c0.5,0,0.8,0.4,0.8,0.8c0,0.5-0.4,0.8-0.8,0.8C802.9-365.5,778.3-390,778.3-420.3"/>
			<path id="path4613" inkscape:connector-curvature="0" class="st2" d="M782.5-420.3c0-28,22.7-50.7,50.7-50.7s50.7,22.7,50.7,50.7
				s-22.7,50.7-50.7,50.7v-1.7c13.6,0,25.8-5.5,34.7-14.3c8.9-8.9,14.3-21.1,14.3-34.7c0-13.5-5.5-25.8-14.3-34.7
				c-8.9-8.9-21.1-14.3-34.7-14.3s-25.8,5.5-34.7,14.3c-8.9,8.9-14.3,21.1-14.3,34.7c0,13.5,5.5,25.8,14.3,34.7
				c8.9,8.9,21.1,14.3,34.7,14.3v1.7C805.2-369.7,782.5-392.4,782.5-420.3"/>
			<path id="path4615" inkscape:connector-curvature="0" class="st2" d="M788.3-420.3c0,24.8,20.1,44.8,44.9,44.8
				c24.8,0,44.9-20,44.9-44.8s-20.1-44.8-44.9-44.8C808.4-465.2,788.3-445.2,788.3-420.3z M800.3-387.5c-8.4-8.4-13.6-20-13.6-32.9
				s5.2-24.5,13.6-32.9c8.4-8.4,20.1-13.6,32.9-13.6c12.9,0,24.5,5.2,32.9,13.6s13.6,20,13.6,32.9s-5.2,24.5-13.6,32.9
				c-8.4,8.4-20.1,13.6-32.9,13.6C820.3-373.8,808.7-379,800.3-387.5"/>
			<path id="path4617" inkscape:connector-curvature="0" class="st2" d="M833.2-378v-1.7c11.3,0,21.4-4.6,28.8-11.9
				c7.4-7.4,11.9-17.6,11.9-28.8c0-11.2-4.5-21.4-11.9-28.8s-17.5-11.9-28.8-11.9s-21.4,4.6-28.8,11.9c-7.4,7.4-11.9,17.5-11.9,28.8
				c0,11.2,4.6,21.4,11.9,28.8c7.4,7.4,17.5,11.9,28.8,11.9V-378c-23.4,0-42.4-19-42.4-42.4s18.9-42.4,42.4-42.4
				c23.4,0,42.4,19,42.4,42.4C875.5-397,856.6-378,833.2-378L833.2-378"/>
			<path id="path4619" inkscape:connector-curvature="0" class="st2" d="M806.1-393.3c-6.9-6.9-11.2-16.5-11.2-27
				c0-10.6,4.3-20.1,11.2-27s16.5-11.2,27-11.2c0.5,0,0.8,0.4,0.8,0.8c0,0.5-0.4,0.8-0.8,0.8c-20.2,0-36.6,16.3-36.6,36.6
				c0,20.2,16.3,36.6,36.6,36.6c20.2,0,36.6-16.4,36.6-36.6c0-0.5,0.4-0.8,0.8-0.8c0.5,0,0.8,0.4,0.8,0.8c0,10.6-4.3,20.1-11.2,27
				s-16.5,11.2-27,11.2C822.6-382.1,813.1-386.4,806.1-393.3"/>
			<path id="path4621" inkscape:connector-curvature="0" class="st2" d="M809.1-396.3c-6.2-6.2-10-14.7-10-24.1s3.8-17.9,10-24.1
				s14.7-10,24.1-10c9.4,0,17.9,3.8,24.1,10c6.2,6.2,10,14.7,10,24.1c0,0.4-0.4,0.8-0.8,0.8c-0.5,0-0.8-0.4-0.8-0.8
				c0-9-3.6-17-9.5-22.9s-14-9.5-22.9-9.5c-9,0-17.1,3.6-22.9,9.5c-5.9,5.9-9.5,14-9.5,22.9s3.6,17,9.5,22.9s14,9.5,22.9,9.5
				c0.5,0,0.8,0.4,0.8,0.8c0,0.5-0.4,0.8-0.8,0.8C823.8-386.3,815.2-390.1,809.1-396.3"/>
			<path id="path4623" inkscape:connector-curvature="0" class="st2" d="M804.6-420.3c0,15.8,12.7,28.5,28.5,28.5
				s28.5-12.7,28.5-28.5s-12.8-28.5-28.5-28.5C817.4-448.9,804.6-436.1,804.6-420.3z M812.2-399.4c-5.4-5.4-8.7-12.8-8.7-21
				s3.3-15.6,8.7-21s12.8-8.7,21-8.7s15.6,3.3,21,8.7c5.4,5.4,8.7,12.8,8.7,21s-3.3,15.6-8.7,21s-12.8,8.7-21,8.7
				C825-390.7,817.6-394,812.2-399.4"/>
			<path id="path4625" inkscape:connector-curvature="0" class="st2" d="M807.4-420.3c0-14.2,11.5-25.8,25.7-25.8
				c0.5,0,0.8,0.4,0.8,0.8c0,0.5-0.4,0.8-0.8,0.8c-6.7,0-12.7,2.7-17,7.1c-4.4,4.4-7.1,10.4-7.1,17c0,6.7,2.7,12.7,7.1,17
				c4.4,4.4,10.4,7.1,17,7.1c6.7,0,12.7-2.7,17-7.1c4.4-4.4,7.1-10.4,7.1-17c0-0.5,0.4-0.8,0.8-0.8c0.5,0,0.8,0.4,0.8,0.8
				c0,14.2-11.5,25.8-25.8,25.8C819-394.6,807.4-406.1,807.4-420.3"/>
			<path id="path4627" inkscape:connector-curvature="0" class="st2" d="M831.5-399.6c0-0.9,0.7-1.7,1.7-1.7
				c10.6,0,19.1-8.5,19.1-19.1s-8.6-19.1-19.1-19.1c-10.6,0-19.1,8.5-19.1,19.1c0,0.9-0.7,1.7-1.7,1.7c-0.9,0-1.7-0.7-1.7-1.7
				c0-12.4,10-22.4,22.4-22.4s22.4,10,22.4,22.4s-10,22.4-22.4,22.4C832.3-397.9,831.5-398.7,831.5-399.6"/>
			<path id="path4629" inkscape:connector-curvature="0" class="st2" d="M815.7-420.3c0-0.5,0.4-0.8,0.8-0.8c0.5,0,0.8,0.4,0.8,0.8
				c0,8.7,7.1,15.8,15.8,15.8s15.8-7.1,15.8-15.8c0-0.5,0.4-0.8,0.8-0.8c0.5,0,0.8,0.4,0.8,0.8c0,9.6-7.8,17.4-17.4,17.4
				C823.5-402.9,815.7-410.7,815.7-420.3"/>
			<path id="path4631" inkscape:connector-curvature="0" class="st2" d="M822.1-420.3c0,6.1,5,11.1,11.1,11.1s11.1-4.9,11.1-11.1
				c0-6.1-5-11.1-11.1-11.1S822.1-426.5,822.1-420.3z M819.3-420.3c0-7.7,6.2-13.8,13.9-13.8c7.6,0,13.8,6.2,13.9,13.8
				c0,7.7-6.2,13.8-13.9,13.8S819.3-412.7,819.3-420.3"/>
			<path id="path4633" inkscape:connector-curvature="0" class="st2" d="M831.5-412c0-0.9,0.7-1.7,1.7-1.7c3.7,0,6.6-3,6.7-6.7
				c0-3.7-3-6.7-6.7-6.7s-6.6,3-6.6,6.7c0,0.9-0.7,1.7-1.7,1.7c-0.9,0-1.7-0.7-1.7-1.7c0-5.5,4.5-10,10-10s10,4.5,10,10
				s-4.5,10-10,10C832.3-410.4,831.5-411.1,831.5-412"/>
		</g>
	</g>
</g>
<text transform="matrix(0 -1 1 0 86.9287 209.6436)" class="st3 st4 st5">INSIGHTS</text>
<text transform="matrix(0 -1 1 0 48.2471 395.4727)" class="st3 st6 st5">EMERGING DISEASE</text>
<text transform="matrix(0 -1 1 0 111.3428 384.3047)" class="st3 st4 st7">Research from the PREDICT Modeling &amp; Analytics team</text>
<g>
	<polygon class="st8" points="77.1,379 72.7,373.1 72.8,380.5 65.5,382.9 72.9,385.2 73,392.5 77.3,386.6 84.5,388.9 80,382.9 
		84.8,376.5 	"/>
	<polygon class="st8" points="76.8,352.9 72.4,347 72.5,354.4 65.1,356.8 72.5,359.1 72.6,366.4 77,360.5 84.2,362.8 79.7,356.8 
		84.4,350.4 	"/>
	<polygon class="st8" points="76.4,327.1 72,321.2 72.1,328.5 64.8,331 72.2,333.3 72.3,340.6 76.6,334.7 83.9,336.9 79.3,331 
		84.1,324.5 	"/>
	<polygon class="st8" points="76.1,301 71.7,295.1 71.8,302.4 64.4,304.9 71.8,307.2 71.9,314.5 76.3,308.6 83.5,310.8 79,304.9 
		83.7,298.4 	"/>
	<polygon class="st8" points="75.7,274 71.3,268.1 71.4,275.5 64.1,277.9 71.5,280.2 71.6,287.5 75.9,281.6 83.1,283.9 78.6,277.9 
		83.4,271.4 	"/>
	<polygon class="st8" points="75.4,248 71,242.2 71.1,249.5 63.7,251.9 71.1,254.2 71.2,261.5 75.6,255.6 82.8,257.9 78.3,251.9 
		83,245.5 	"/>
	<polygon class="st8" points="75,221.3 70.6,215.4 70.7,222.7 63.4,225.2 70.8,227.5 70.9,234.8 75.2,228.9 82.4,231.1 77.9,225.2 
		82.7,218.7 	"/>
</g>
</svg>
